<svg xmlns="http://www.w3.org/2000/svg" xmlns:xlink="http://www.w3.org/1999/xlink" style="enable-background:new 0 0 1085.9 613" x="0" y="0" version="1.1" viewBox="0 0 1085.9 613" xml:space="preserve"><style type="text/css">.st0{fill-rule:evenodd;clip-rule:evenodd;fill:#051b75}.st1{fill:#bebebe}.st2{fill:#e3f6ff}.st2,.st3,.st4,.st5{fill-rule:evenodd;clip-rule:evenodd}.st3{fill:#0f62fe}.st4{fill:#054ada}.st5{fill:#8a3ffc}.st6{fill:none;stroke:#bebebe;stroke-width:2}.st7{display:none;fill:#bebebe}.st8{fill-rule:evenodd;clip-rule:evenodd;fill:none}.st9{fill:#f4f4f4}.st10{font-family:&apos;IBMPlexSans-Medium&apos;}.st11{font-size:16px}.st12{fill-rule:evenodd;clip-rule:evenodd;fill:#408bfc}.st13{fill:#161616}.st14{font-family:&apos;IBMPlexSans&apos;}.st15{font-size:14px}.st16,.st17{fill-rule:evenodd;clip-rule:evenodd;fill:#fff}.st17{fill:#92eeee}.st18,.st19{fill:none;stroke:#bebebe;stroke-width:2;stroke-miterlimit:10}.st19{stroke-width:2.2099}</style><g id="Layer_1"><rect id="Rectangle-Copy-51" width="496.4" height="284" x="352" y="211" class="st0"/><path id="Line-11-Copy-3" d="M409.2,367l6.8,14.1l-6-0.1l-0.2,15l6,0.1l-7.2,13.9l-6.8-14.1l6,0.1l0.2-15l-6-0.1 L409.2,367z" class="st1"/><path id="Line-11-Copy-4" d="M505,367l6.8,14.1l-6-0.1l-0.2,15l6,0.1l-7.2,13.9l-6.8-14.1l6,0.1l0.2-15l-6-0.1L505,367 z" class="st1"/><path id="Line-11-Copy-5" d="M791.7,367l6.8,14.1l-6-0.1l-0.2,15l6,0.1l-7.2,13.9l-6.8-14.1l6,0.1l0.2-15l-6-0.1 L791.7,367z" class="st1"/><circle id="Oval-Copy-3" cx="60.6" cy="24" r="24" class="st2"/><path id="Shape" d="M55.6,27c2.8,0,5,2.2,5,5v6h-2v-6c0-1.7-1.3-3-3-3h-4c-1.7,0-3,1.3-3,3v6h-2v-6c0-2.8,2.2-5,5-5 H55.6z M53.6,15c2.8,0,5,2.2,5,5s-2.2,5-5,5s-5-2.2-5-5S50.8,15,53.6,15z M68.6,12.9c2.1,0,3.9,1.4,4.5,3.4l0.1,0.2l0,0.1l0,0 c1.3,0.5,2.2,1.7,2.3,3.1l0,0.2l0,0.2c0,2.1-1.6,3.7-3.7,3.9l-0.2,0h-6.3c-2.1,0-3.9-1.7-3.9-3.9c0-1.5,0.9-2.8,2.2-3.5l0.2-0.1 l0-0.1c0.5-1.9,2.1-3.4,4.1-3.6l0.2,0L68.6,12.9z M53.6,17c-1.7,0-3,1.3-3,3c0,1.7,1.3,3,3,3s3-1.3,3-3S55.2,17,53.6,17z M68.6,14.9c-1.4,0-2.5,1-2.7,2.4l0,0.2l0,0.8l-0.8,0.2c-0.9,0.2-1.5,0.9-1.5,1.8c0,1,0.8,1.8,1.7,1.9l0.1,0h6.3 c1,0,1.9-0.8,1.9-1.9c0-0.8-0.6-1.6-1.3-1.8l-0.1,0l-0.8-0.2l0-0.8C71.2,16,70,14.9,68.6,14.9z" class="st3"/><rect id="Rectangle-Copy-48" width="184.7" height="284" x="123.7" y="211" class="st4"/><rect id="Rectangle-Copy-49" width="724.7" height="100" x="123.7" y="513" class="st5"/><polyline id="Path-6-Copy-9_4_" points="550.5 95 550.5 171 380.1 171" class="st6"/><path id="Path-6-Copy-8" d="M669.8,95v99h149v304.5H552.3V479h-6l7-14l7,14h-6v17.5h262.5V196h-149V95H669.8z" class="st7"/><path id="Path-6-Copy-5" d="M1500.8,507.9l-7,14l-7-14H1500.8z M1494.8,501v4h-2v-4H1494.8z M1494.8,493v4h-2v-4 H1494.8z M1494.8,485v4h-2v-4H1494.8z M1494.8,477v4h-2v-4H1494.8z M1494.8,469v4h-2v-4H1494.8z M1494.8,461v4h-2v-4H1494.8z M1494.8,453v4h-2v-4H1494.8z M1494.8,445v4h-2v-4H1494.8z M1494.8,437v4h-2v-4H1494.8z M1494.8,429v4h-2v-4H1494.8z M1494.8,421v4 h-2v-4H1494.8z M1494.8,413v4h-2v-4H1494.8z M1494.8,405v4h-2v-4H1494.8z M1494.8,397v4h-2v-4H1494.8z M1494.8,389v4h-2v-4H1494.8z M1494.8,381v4h-2v-4H1494.8z M1494.8,373v4h-2v-4H1494.8z M1494.8,365v4h-2v-4H1494.8z M1494.8,357v4h-2v-4H1494.8z M1494.8,349v4 h-2v-4H1494.8z M1494.8,341v4h-2v-4H1494.8z" class="st1"/><rect width="184" height="15.6" x="365.1" y="231.1" class="st8"/><text class="st9 st10 st11" transform="matrix(1 0 0 1 365.1083 242.9885)">OH management hub</text><rect width="319.6" height="15.6" x="139.7" y="533.2" class="st8"/><text class="st9 st10 st11" transform="matrix(1 0 0 1 139.7278 544.9918)">Optional Kubernetes container platform</text><rect id="Rectangle-Copy-14" width="117" height="100" x="868.8" y="513" class="st12"/><rect width="94.6" height="15.6" x="884.8" y="533.2" class="st8"/><text class="st9 st10 st11" transform="matrix(1 0 0 1 884.827 544.9918)">Edge node</text><rect width="148" height="57" x="139.7" y="231.1" class="st8"/><text transform="matrix(1 0 0 1 139.7274 242.9885)"><tspan x="0" y="0" class="st9 st10 st11">Optional cloud-based</tspan><tspan x="0" y="22" class="st9 st10 st11">utilities and services</tspan></text><rect width="99.9" height="17.9" x="10" y="51.6" class="st8"/><text class="st13 st14 st15" transform="matrix(1 0 0 1 13.4691 61.9691)">Management hub administrator</text><rect width="99.9" height="56" x="67.6" y="98.6" class="st8"/><text class="st13 st14 st15" transform="matrix(1 0 0 1 67.587 108.967)">1. Sets up Kube</text><rect width="149.1" height="56" x="195.6" y="98.6" class="st8"/><text transform="matrix(1 0 0 1 195.5871 108.967)"><tspan x="0" y="0" class="st13 st14 st15">2. Installs any needed </tspan><tspan x="0" y="20" class="st13 st14 st15">utilities and </tspan><tspan x="0" y="40" class="st13 st14 st15">services</tspan></text><rect width="149.1" height="56" x="385.6" y="98.6" class="st8"/><text transform="matrix(1 0 0 1 385.5871 108.967)"><tspan x="0" y="0" class="st13 st14 st15">3. Installs the </tspan><tspan x="0" y="20" class="st13 st14 st15">components on the </tspan><tspan x="0" y="40" class="st13 st14 st15">management hub</tspan></text><rect width="172" height="56" x="562.6" y="98.6" class="st8"/><text transform="matrix(1 0 0 1 562.5871 108.9675)"><tspan x="0" y="0" class="st13 st14 st15">4. Set up optional </tspan><tspan x="0" y="20" class="st13 st14 st15">utilities and services</tspan><tspan x="0" y="40" class="st13 st14 st15">like Kafka</tspan></text><rect width="135.2" height="56" x="755.6" y="98.6" class="st8"/><text transform="matrix(1 0 0 1 755.5872 108.9675)"><tspan x="0" y="0" class="st13 st14 st15">5. Populates the </tspan><tspan x="0" y="20" class="st13 st14 st15">exchange with Open </tspan><tspan x="0" y="40" class="st13 st14 st15">Horizon examples</tspan></text><rect width="130.3" height="38.4" x="939.4" y="98.6" class="st8"/><text transform="matrix(1 0 0 1 939.3633 108.9675)"><tspan x="0" y="0" class="st13 st14 st15">6. Publishes agent </tspan><tspan x="0" y="20" class="st13 st14 st15">install files to MMS</tspan></text><rect width="80.8" height="56.4" x="939.8" y="392.8" class="st8"/><text transform="matrix(1 0 0 1 939.8289 403.2048)"><tspan x="0" y="0" class="st13 st14 st15">Edge nodes </tspan><tspan x="0" y="20" class="st13 st14 st15">pull files </tspan><tspan x="0" y="40" class="st13 st14 st15">from MMS</tspan></text><line id="Path-6-Copy-4_3_" x1="1352.8" x2="1352.8" y1="102.9" y2="254.4" class="st6"/><path id="Path-6-Copy-5_2_" d="M1360.3,507.9l-7,14l-7-14H1360.3z M1354.3,501v4h-2v-4H1354.3z M1354.3,493v4h-2v-4 H1354.3z M1354.3,485v4h-2v-4H1354.3z M1354.3,477v4h-2v-4H1354.3z M1354.3,469v4h-2v-4H1354.3z M1354.3,461v4h-2v-4H1354.3z M1354.3,453v4h-2v-4H1354.3z M1354.3,445v4h-2v-4H1354.3z M1354.3,437v4h-2v-4H1354.3z M1354.3,429v4h-2v-4H1354.3z M1354.3,421v4 h-2v-4H1354.3z M1354.3,413v4h-2v-4H1354.3z M1354.3,405v4h-2v-4H1354.3z M1354.3,397v4h-2v-4H1354.3z M1354.3,389v4h-2v-4H1354.3z M1354.3,381v4h-2v-4H1354.3z M1354.3,373v4h-2v-4H1354.3z M1354.3,365v4h-2v-4H1354.3z M1354.3,357v4h-2v-4H1354.3z M1354.3,349v4 h-2v-4H1354.3z M1354.3,341v4h-2v-4H1354.3z" class="st1"/><circle id="Oval-Copy-3_10_" cx="1353.3" cy="285.9" r="24" class="st2"/><path id="Shape_4_" d="M1348.3,288.9c2.8,0,5,2.2,5,5v6h-2v-6c0-1.7-1.3-3-3-3h-4c-1.7,0-3,1.3-3,3v6h-2v-6 c0-2.8,2.2-5,5-5H1348.3z M1346.3,276.9c2.8,0,5,2.2,5,5c0,2.8-2.2,5-5,5c-2.8,0-5-2.2-5-5C1341.3,279.2,1343.6,276.9,1346.3,276.9 z M1359.3,284.9v2h-2v-2H1359.3z M1364.3,284.9v2h-2v-2H1364.3z M1346.3,278.9c-1.7,0-3,1.3-3,3c0,1.7,1.3,3,3,3s3-1.3,3-3 C1349.3,280.3,1348,278.9,1346.3,278.9z M1367.3,281.9v2h-2v-2H1367.3z M1356.3,281.9v2h-2v-2H1356.3z M1364.3,276.9v7h-7v-7 H1364.3z M1362.3,278.9h-3v3h3V278.9z M1367.3,276.9v2h-2v-2H1367.3z M1356.3,276.9v2h-2v-2H1356.3z M1359.3,273.9v2h-2v-2H1359.3z M1364.3,273.9v2h-2v-2H1364.3z" class="st3"/><g><circle id="Oval-Copy-3_9_" cx="1352.8" cy="209.5" r="20" class="st16"/><path id="Fill-1_5_" d="M1350.8,209.5h4v-5h-4V209.5z M1354.8,202.5h-4c-1.1,0-2,0.9-2,2v12h2v-5h4v5h2v-12 C1356.8,203.4,1355.9,202.5,1354.8,202.5L1354.8,202.5z" class="st12"/><path id="Fill-3_5_" d="M1360.8,208.5h4v-4h-4V208.5z M1366.8,208.5v-4c0-1.1-0.9-2-2-2h-6v14h2v-6h1.5l2.3,6h2.1 l-2.3-6h0.4C1365.9,210.5,1366.8,209.6,1366.8,208.5L1366.8,208.5z" class="st12"/><polygon id="Fill-4_5_" points="1338.8 204.5 1341.8 204.5 1341.8 216.5 1343.8 216.5 1343.8 204.5 1346.8 204.5 1346.8 202.5 1338.8 202.5" class="st12"/></g><circle id="Oval-Copy-3_8_" cx="1353.3" cy="388.9" r="20" class="st16"/><path id="Fill-1_4_" d="M1351.3,388.9h4v-5h-4V388.9z M1355.3,381.9h-4c-1.1,0-2,0.9-2,2v12h2v-5h4v5h2v-12 C1357.3,382.8,1356.4,381.9,1355.3,381.9L1355.3,381.9z" class="st12"/><path id="Fill-3_4_" d="M1361.3,387.9h4v-4h-4V387.9z M1367.3,387.9v-4c0-1.1-0.9-2-2-2h-6v14h2v-6h1.5l2.3,6h2.1 l-2.3-6h0.4C1366.4,389.9,1367.3,389.1,1367.3,387.9L1367.3,387.9z" class="st12"/><polygon id="Fill-4_4_" points="1339.3 383.9 1342.3 383.9 1342.3 395.9 1344.3 395.9 1344.3 383.9 1347.3 383.9 1347.3 381.9 1339.3 381.9" class="st12"/><rect width="135.2" height="14.9" x="1285.2" y="320.4" class="st8"/><text class="st13 st14 st15" transform="matrix(1 0 0 1 1314.0431 330.7556)">Node owner</text><rect width="100.2" height="56.4" x="1365.3" y="430.2" class="st8"/><text transform="matrix(1 0 0 1 1365.3431 440.6035)"><tspan x="0" y="0" class="st13 st14 st15">Needs the tar </tspan><tspan x="0" y="20" class="st13 st14 st15">file later for </tspan><tspan x="0" y="40" class="st13 st14 st15">agent install</tspan></text><g><rect id="Rectangle-Copy-16" width="80" height="81" x="655.9" y="286" class="st16"/><rect width="80" height="14.9" x="655.9" y="319.6" class="st8"/><text class="st13 st14 st15" transform="matrix(1 0 0 1 682.0273 329.9869)">SDO</text></g><g><rect id="Rectangle-Copy-16_6_" width="80" height="81" x="751.5" y="286" class="st16"/><rect width="80" height="14.9" x="751.5" y="319.6" class="st8"/><text class="st13 st14 st15" transform="matrix(1 0 0 1 775.883 329.9869)">MMS</text></g><g><rect id="Rectangle-Copy-16_2_" width="80" height="81" x="464.8" y="286" class="st16"/><rect width="80" height="14.9" x="464.8" y="319.6" class="st8"/><text class="st13 st14 st15" transform="matrix(1 0 0 1 473.8431 329.9869)">Exchange</text></g><g><rect id="Rectangle-Copy-16_3_" width="80" height="81" x="369.2" y="286" class="st16"/><rect width="80" height="14.9" x="369.2" y="319.6" class="st8"/><text class="st13 st14 st15" transform="matrix(1 0 0 1 390.2636 329.9869)">Agbot</text></g><g><rect id="Rectangle-Copy-16_7_" width="80" height="81" x="139.7" y="397" class="st16"/><rect width="80" height="14.9" x="139.6" y="430.7" class="st8"/><text class="st13 st14 st15" transform="matrix(1 0 0 1 166.5116 441.0553)">Kafka</text></g><g><rect id="Rectangle-Copy-16_4_" width="80" height="68" x="369.2" y="410" class="st17"/><rect width="80" height="39.8" x="369.2" y="427.7" class="st8"/><text transform="matrix(1 0 0 1 381.1071 438.0454)"><tspan x="0" y="0" class="st13 st14 st15">Postgres</tspan><tspan x="18.7" y="20" class="st13 st14 st15">DB</tspan></text></g><g><rect id="Rectangle-Copy-16_5_" width="80" height="68" x="464.8" y="410" class="st17"/><rect width="80" height="39.8" x="464.8" y="427.7" class="st8"/><text transform="matrix(1 0 0 1 476.6773 438.0454)"><tspan x="0" y="0" class="st13 st14 st15">Postgres</tspan><tspan x="18.7" y="20" class="st13 st14 st15">DB</tspan></text></g><g><rect id="Rectangle-Copy-16_16_" width="80" height="68" x="751.5" y="410" class="st17"/><rect width="80" height="39.8" x="751.5" y="427.7" class="st8"/><text transform="matrix(1 0 0 1 769.9676 438.0454)"><tspan x="0" y="0" class="st13 st14 st15">Mongo</tspan><tspan x="12.2" y="20" class="st13 st14 st15">DB</tspan></text></g><g><g><polyline points="743.6 95 743.6 265 504.8 265 504.8 276" class="st18"/><g><polygon points="497.8 274 504.8 286 511.7 274" class="st1"/></g></g></g><g><g><polyline points="927.3 95 927.3 313 842.6 313" class="st19"/><g><polygon points="844.8 305.3 831.5 313 844.8 320.8" class="st1"/></g></g></g><g><g><polyline points="831.5 339.5 927.3 339.5 927.3 501.9" class="st19"/><g><polygon points="919.6 499.6 927.3 513 935 499.6" class="st1"/></g></g></g><g><g><line x1="183.4" x2="183.4" y1="95" y2="201" class="st18"/><g><polygon points="176.4 198.9 183.4 211 190.4 198.9" class="st1"/></g></g></g><g><g><polyline points="55.5 80.1 55.5 563 113.7 563" class="st18"/><g><polygon points="111.6 570 123.7 563 111.6 556" class="st1"/></g></g></g><g><g><polyline points="229.8 434.1 330.2 434.1 330.2 171 365.1 171" class="st18"/><g><polygon points="231.8 441.1 219.7 434.1 231.8 427.2" class="st1"/></g></g></g><g><g><line x1="373.5" x2="373.5" y1="95" y2="201" class="st18"/><g><polygon points="366.5 198.9 373.5 211 380.5 198.9" class="st1"/></g></g></g></g></svg>